# xmcd
# Track frame offsets:
# 150
# 16809
# 36683
# 51399
# 66648
# 85637
# 102175
# 120198
# 133712
# 151490
# 167897
# 182658
# 198661
# 216533
# 231984
#
# Disc length: 3303 seconds
# Revision: 0
# Processed by: cddbd v1.5.1PL0 Copyright (c) Steve Scherf et al.
# Submitted via: VisiTrax 2.9.10.228 - For more info visit www.synapsa.com
#
DISCID=dd0ce50f
DTITLE=Whitley, Keith - CB90098
DYEAR=1900
DGENRE=Karaoke
TTITLE0=I'm No Stranger To The Rain
TTITLE1=Don't Close Your Eyes
TTITLE2=I'm Over You
TTITLE3=I Wonder Do You Think Of Me
TTITLE4=It Ain't Nothin'
TTITLE5=Talk To Me Texas
TTITLE6=Somebody's Doin' Me Right
TTITLE7=Heartbreak Highway
TTITLE8=Miami, My Amy
TTITLE9=Ten Feet Away
TTITLE10=Homecoming '63
TTITLE11=Hard Livin'
TTITLE12=When You Say Nothing At All
TTITLE13=Would These Arms Be In Your Way
TTITLE14=Some Old Side Road
EXTD=
EXTT0=
EXTT1=
EXTT2=
EXTT3=
EXTT4=
EXTT5=
EXTT6=
EXTT7=
EXTT8=
EXTT9=
EXTT10=
EXTT11=
EXTT12=
EXTT13=
EXTT14=
PLAYORDER=
